<?xml version="1.0" encoding="UTF-8"?>
<svg id="Layer_1" xmlns="http://www.w3.org/2000/svg" version="1.1" viewBox="0 0 244.48 90.64">
  <!-- Generator: Adobe Illustrator 30.2.1, SVG Export Plug-In . SVG Version: 2.1.1 Build 1)  -->
  <defs>
    <style>
      .st0 {
        isolation: isolate;
      }

      .st1 {
        fill: #fff;
      }
    </style>
  </defs>
  <g id="logotype">
    <g id="icon">
      <path class="st1" d="M88.74,45.32c0,24.68-20,44.69-44.69,44.69-17.44,0-32.55-9.99-39.91-24.57C1.09,59.39-.64,52.55-.64,45.32c0-11.31,4.22-21.66,11.14-29.52C18.7,6.49,30.68.64,44.04.64c24.68,0,44.69,20,44.69,44.69h.01Z"/>
      <g id="body">
        <path d="M76.4,43.28s-.08.09-.12.13c-.13.17-.13.54-.12.89.04.41.12.83.12,1,0,.33-.96.79-.96.79,0,0,.84,1.12.22,3.09-.61,1.96-2.13,5.43-4.08,6.48-1.97,1.07-2.91.12-3.31.51-.38.38-1.46.61-2.58.38-1.11-.22-3.07.29-4.81.29s-1.97-4.43-5.28-5.05c-3.3-.61-10.2-.38-11.14-.5-.96-.12-.86-1.01-1.46-1.23-.63-.23-5.81-1.46-7.11-2.02-1.29-.56-5.83-.18-8.24,1.05-2.4,1.23-6.1,5.27-7.22,7-.61-.46-1.96.45-1.96.45,0,0,1.34,1.57,5.05,2.35,3.69.79,11.87,2.02,14.9,2.02s5.88,3.48,6.89,4.6,4.14,2.7,4.14,2.7c1.29.55,1.23,1.79,1.23,1.79,0,0,1.46.73,1.46,1.46s1.05,2.3,1.01,2.85c-.06.56,0,1.57.33,2.47.35.88.38,1.97-.33,1.79.28.96-.51.89-.73,1.29-.22.4-1.67.46-2.19-.66-.05.84-1.23.84-1.9.88-.68.06-2.35-4.19-2.63-5.47-.29-1.29-3.97-4.37-4.43-4.88-.45-.5-1.73.17-2.52.17s-1.34-1.46-2.02-1.96c-.68-.5-3.74-1.01-5.94-1.12-2.17-.12-22.29-1.23-23.58-1.06s-2.53-1.12-2.53-1.12c0,0-.27.2-.45.79C1.06,59.39-.66,52.55-.66,45.32c0-11.31,4.22-21.66,11.14-29.52,3.27.13,5.81.2,6.29.36,1.29.38,2.02,2.02,2.4,2.24.4.22,6.16,3.71,8.91,5.5s7.46,2.29,8.97,2.8c1.5.49,4.97,1.88,6.33,2.45-.2-.55-.05-1.23-.63-2.15-.32-.52-1.94-2.16-2.03-2.26h0c-.51-.46-.61-1.3-1.06-1.81-.23-.26-1.2-.49-1.2-.63.04-.29,1.52-.17,2.24.68.47.56,1.66.7,3.39,2.12.29.24,1.84,1.76,1.92,1.84.23.27.47.54.72.83.87,1.05,1.67,2.16,1.51,2.44-.28.45.06,1.27.14,1.85.13-.37.09-1.23.19-1.58.12-.36.37-.22.33-.51l-.83-.83h.04c.61-.35,2.04,0,3.07.35-.1-.33-.23-.65-.4-.96-.68-1.23-1.37-1.98-2.07-3.02-.36-.52-.43-1.24-.7-1.57-.29-.38-.86-.63-.79-.65.24-.08,1.15.4,1.69,1.01.19.23.95,1.47,1.39,1.83.68.52,1.38.2,2.4,1.06,1.69,1.38,2.79,3.23,3.13,3.88,2.44.74,5.38,1.66,6.39,2.27,1.73,1.06,2.07,1.19,2.07,2.3s1.01,2.68,1.73,2.96c.73.29,10.59,3.08,10.71,3.71.1.54-.12.78-.35,1.05l.04-.06Z"/>
      </g>
      <g id="nose">
        <path class="st1" d="M76.28,43.41c-.13.17-.13.52-.1.89h-.73c-.18.08-.41.6-.86.64-.43.03-1.02-.35-1.16-.43.13.08.69.38,1.12.38.49,0,.41-.74.45-1.23s.6-.7.93-.7c.18,0,.33.14.45.32l-.12.12h.01Z"/>
        <path class="st1" d="M72.66,43.46c-.96-.09-1.2-.13-1.2-.13,0,0,.32.52,1.05.55.15,0,.37.29.89.63-.75-.58-.66-.79-.74-1.04h0Z"/>
      </g>
      <g id="eye">
        <path class="st1" d="M61.74,39.19l-1.23-.77s-.23.56-1.74.19c-1.61-.38-1.48-1.8-1.18-2.24,1.29.09,1.84.54,2.9.84-.08,1.06,1.24,1.97,1.24,1.97Z"/>
      </g>
      <path d="M44.05,90.64c-17.21,0-32.72-9.55-40.48-24.93C.35,59.35-1.28,52.49-1.28,45.32c0-11.04,4.01-21.67,11.3-29.94C18.63,5.6,31.02,0,44.04,0c24.49,0,44.5,19.52,45.3,43.81l.02-.02v1.53c.01,24.99-20.32,45.33-45.32,45.33ZM44.04,1.28c-12.65,0-24.69,5.45-33.05,14.94C3.9,24.26,0,34.59,0,45.32c0,6.97,1.58,13.64,4.71,19.83,7.54,14.94,22.62,24.22,39.34,24.22,23.93,0,43.46-19.18,44.04-42.97v-1.07C88.09,21.04,68.33,1.28,44.04,1.28Z"/>
    </g>
    <g id="Typography">
      <g class="st0">
        <g class="st0">
          <path class="st1" d="M120.42,34.45h-10.61l-2.56,12.26h-5.65l5.75-27.44h5.63l-2.21,10.6h10.61l2.23-10.6h5.63l-5.73,27.44h-5.65l2.56-12.26Z"/>
        </g>
        <g class="st0">
          <path class="st1" d="M132.56,35.95c0-1.62.24-3.33.73-5.13.64-2.41,1.61-4.5,2.91-6.27s2.95-3.17,4.93-4.2c1.98-1.03,4.24-1.54,6.78-1.54,3.39,0,6.14,1.05,8.23,3.16s3.14,4.9,3.14,8.39c0,2.9-.68,5.7-2.04,8.41s-3.21,4.79-5.54,6.25-4.97,2.19-7.92,2.19c-2.56,0-4.7-.58-6.44-1.74s-2.96-2.6-3.69-4.31-1.09-3.45-1.09-5.2ZM138.14,35.83c0,1.88.57,3.46,1.72,4.74s2.66,1.91,4.53,1.91c1.52,0,2.99-.5,4.39-1.51,1.4-1,2.56-2.53,3.48-4.57.92-2.04,1.38-4.03,1.38-5.96,0-2.16-.58-3.85-1.74-5.08-1.16-1.23-2.64-1.84-4.44-1.84-2.76,0-5,1.29-6.73,3.86s-2.59,5.39-2.59,8.46Z"/>
        </g>
        <g class="st0">
          <path class="st1" d="M166.59,19.27h5.63l-3.11,14.9-.77,3.67c-.05.31-.07.61-.07.88,0,1.09.4,1.98,1.19,2.69s1.94,1.06,3.45,1.06c1.36,0,2.48-.26,3.37-.77s1.57-1.27,2.06-2.28.98-2.73,1.48-5.15l3.14-14.99h5.63l-3.13,15.01c-.66,3.16-1.42,5.57-2.28,7.24s-2.17,3.03-3.91,4.08-3.96,1.57-6.63,1.57c-3.19,0-5.64-.78-7.34-2.35-1.7-1.56-2.55-3.58-2.55-6.04,0-.51.04-1.07.13-1.67.05-.4.27-1.54.66-3.41l3.03-14.45Z"/>
          <path class="st1" d="M210.47,46.71h-5.26l-7.41-18.44-3.86,18.44h-5.26l5.73-27.44h5.28l7.43,18.36,3.84-18.36h5.24l-5.73,27.44Z"/>
        </g>
        <g class="st0">
          <path class="st1" d="M218.37,46.71l5.75-27.44h7.39c2.06,0,3.38.03,3.95.09,1.14.11,2.15.34,3.04.69.89.35,1.7.84,2.43,1.47.73.63,1.36,1.39,1.89,2.27.53.89.94,1.91,1.23,3.06.29,1.16.43,2.42.43,3.79,0,2.96-.57,5.58-1.69,7.87-1.13,2.29-2.55,4.11-4.26,5.46-1.31,1.05-3,1.82-5.07,2.32-1.17.27-2.98.41-5.41.41h-9.68ZM224.94,42.29h2.86c2.07,0,3.57-.13,4.5-.38.93-.25,1.78-.73,2.55-1.43,1.11-1.01,2.05-2.36,2.81-4.04s1.14-3.67,1.14-5.95c0-1.95-.31-3.41-.95-4.39-.63-.98-1.41-1.63-2.33-1.96-.65-.22-1.8-.34-3.46-.34h-3.28l-3.86,18.5Z"/>
        </g>
      </g>
      <g class="st0">
        <g class="st0">
          <path class="st1" d="M96.43,69.8l7.26-12.81h2.02l2.11,12.81h-1.66l-.62-3.69h-5.18l-2.05,3.69h-1.88ZM101.1,64.8h4.24l-.5-3.21c-.19-1.28-.31-2.34-.36-3.19-.29.73-.72,1.6-1.28,2.61l-2.11,3.79Z"/>
        </g>
        <g class="st0">
          <path class="st1" d="M109.17,69.8l2.68-12.81h1.7l-2.67,12.81h-1.71Z"/>
        </g>
        <g class="st0">
          <path class="st1" d="M113.42,65.96l.33-1.58h4.82l-.32,1.58h-4.83Z"/>
        </g>
        <g class="st0">
          <path class="st1" d="M119.75,69.8l2.68-12.81h1.66l2.16,4.8c.66,1.47,1.18,2.7,1.56,3.7.22.58.48,1.37.77,2.36.16-1.08.35-2.19.59-3.34l1.57-7.53h1.67l-2.67,12.81h-1.69l-3.18-7.4c-.57-1.3-1-2.45-1.32-3.45-.09.83-.26,1.85-.51,3.07l-1.62,7.78h-1.67Z"/>
        </g>
        <g class="st0">
          <path class="st1" d="M138.39,68.65c-.55.47-1.07.82-1.58,1.04-.51.22-1.05.33-1.62.33-.86,0-1.55-.25-2.07-.76-.52-.5-.79-1.15-.79-1.93,0-.52.12-.98.35-1.38.24-.4.55-.72.94-.96.39-.24.87-.42,1.43-.52.35-.07,1.03-.12,2.02-.17.99-.04,1.7-.15,2.14-.31.12-.43.18-.79.18-1.07,0-.37-.13-.66-.4-.86-.37-.29-.9-.44-1.61-.44-.66,0-1.21.15-1.63.44-.42.29-.73.71-.92,1.25l-1.6-.14c.33-.92.84-1.62,1.55-2.11s1.6-.73,2.68-.73c1.15,0,2.06.27,2.73.82.51.41.77.94.77,1.59,0,.5-.07,1.07-.22,1.72l-.52,2.31c-.16.73-.24,1.33-.24,1.79,0,.29.06.71.19,1.26h-1.6c-.09-.3-.15-.69-.18-1.15ZM138.97,65.1c-.22.09-.46.15-.71.2s-.68.1-1.27.15c-.92.08-1.57.18-1.95.31-.38.13-.66.33-.86.6s-.29.58-.29.91c0,.44.15.81.46,1.09s.74.43,1.31.43c.52,0,1.03-.14,1.51-.41.48-.28.86-.66,1.14-1.16s.5-1.2.66-2.11Z"/>
        </g>
        <g class="st0">
          <path class="st1" d="M145.2,68.52l-.26,1.29c-.38.1-.75.15-1.1.15-.63,0-1.13-.15-1.5-.46-.28-.23-.42-.55-.42-.95,0-.2.08-.67.23-1.41l1.13-5.39h-1.25l.25-1.22h1.25l.48-2.28,1.81-1.09-.71,3.37h1.56l-.26,1.22h-1.55l-1.07,5.13c-.13.65-.2,1.04-.2,1.17,0,.19.05.33.16.43s.28.15.53.15c.35,0,.66-.03.93-.1Z"/>
        </g>
        <g class="st0">
          <path class="st1" d="M147.1,69.8l1.94-9.28h1.58l-1.94,9.28h-1.58ZM149.41,58.79l.38-1.79h1.57l-.38,1.79h-1.57Z"/>
        </g>
        <g class="st0">
          <path class="st1" d="M153.98,69.8l-1.52-9.28h1.54l.79,5.11c.09.56.19,1.47.32,2.73.3-.66.69-1.41,1.16-2.26l3.1-5.58h1.67l-5.31,9.28h-1.76Z"/>
        </g>
        <g class="st0">
          <path class="st1" d="M167.09,66.65l1.54.16c-.22.76-.73,1.49-1.52,2.18s-1.74,1.03-2.84,1.03c-.69,0-1.32-.16-1.89-.48-.57-.32-1.01-.78-1.31-1.38-.3-.61-.45-1.3-.45-2.07,0-1.01.23-2,.7-2.95.47-.95,1.08-1.66,1.82-2.12.75-.46,1.55-.69,2.42-.69,1.11,0,1.99.34,2.65,1.03.66.69.99,1.62.99,2.81,0,.45-.04.92-.12,1.4h-6.83c-.02.18-.03.34-.03.49,0,.87.2,1.53.6,1.99.4.46.89.69,1.46.69.54,0,1.07-.18,1.6-.53s.93-.87,1.22-1.54ZM162.49,64.35h5.21c0-.16,0-.28,0-.35,0-.79-.2-1.4-.59-1.82-.4-.42-.9-.63-1.53-.63-.68,0-1.29.23-1.85.7-.56.47-.97,1.17-1.25,2.11Z"/>
        </g>
        <g class="st0">
          <path class="st1" d="M174.24,66.63l1.58-.1c0,.45.07.84.21,1.16s.4.58.77.79.81.31,1.31.31c.7,0,1.22-.14,1.57-.42s.52-.61.52-.99c0-.27-.1-.53-.31-.78-.21-.24-.74-.55-1.58-.9-.83-.36-1.37-.61-1.6-.76-.39-.24-.68-.52-.88-.84-.2-.32-.3-.69-.3-1.11,0-.73.29-1.36.87-1.89.58-.52,1.4-.79,2.45-.79,1.16,0,2.05.27,2.66.81.61.54.92,1.25.95,2.13l-1.55.1c-.02-.56-.22-1-.59-1.33-.37-.33-.9-.49-1.58-.49-.55,0-.97.12-1.28.38-.3.25-.45.52-.45.81s.13.55.39.77c.17.15.63.38,1.35.7,1.21.52,1.97.94,2.29,1.24.5.48.75,1.07.75,1.76,0,.46-.14.91-.42,1.35s-.71.8-1.29,1.06c-.58.26-1.26.4-2.05.4-1.07,0-1.98-.26-2.74-.79s-1.11-1.39-1.07-2.59Z"/>
        </g>
        <g class="st0">
          <path class="st1" d="M189.06,66.65l1.54.16c-.22.76-.73,1.49-1.53,2.18s-1.74,1.03-2.84,1.03c-.69,0-1.32-.16-1.89-.48-.57-.32-1.01-.78-1.31-1.38-.3-.61-.45-1.3-.45-2.07,0-1.01.23-2,.7-2.95.47-.95,1.08-1.66,1.82-2.12.75-.46,1.55-.69,2.42-.69,1.11,0,1.99.34,2.65,1.03.66.69.99,1.62.99,2.81,0,.45-.04.92-.12,1.4h-6.83c-.02.18-.03.34-.03.49,0,.87.2,1.53.6,1.99.4.46.89.69,1.46.69.54,0,1.07-.18,1.6-.53s.93-.87,1.22-1.54ZM184.46,64.35h5.21c0-.16,0-.28,0-.35,0-.79-.2-1.4-.59-1.82-.4-.42-.91-.63-1.53-.63-.68,0-1.29.23-1.85.7-.56.47-.97,1.17-1.24,2.11Z"/>
        </g>
        <g class="st0">
          <path class="st1" d="M191.65,69.8l1.94-9.28h1.4l-.39,1.9c.48-.72.94-1.25,1.4-1.59.46-.34.92-.52,1.4-.52.31,0,.7.11,1.16.34l-.65,1.47c-.27-.2-.57-.3-.9-.3-.55,0-1.12.31-1.7.93-.58.62-1.04,1.73-1.37,3.33l-.79,3.72h-1.5Z"/>
        </g>
        <g class="st0">
          <path class="st1" d="M200.7,69.8l-1.52-9.28h1.54l.79,5.11c.09.56.2,1.47.32,2.73.3-.66.69-1.41,1.16-2.26l3.1-5.58h1.67l-5.31,9.28h-1.76Z"/>
        </g>
        <g class="st0">
          <path class="st1" d="M206.95,69.8l1.94-9.28h1.58l-1.94,9.28h-1.58ZM209.25,58.79l.38-1.79h1.57l-.38,1.79h-1.57Z"/>
          <path class="st1" d="M217.39,66.42l1.58.17c-.4,1.16-.96,2.02-1.69,2.58-.73.56-1.56.84-2.49.84-1.01,0-1.82-.33-2.45-.98-.63-.65-.94-1.56-.94-2.73,0-1.01.2-2.01.6-2.99s.98-1.72,1.72-2.23c.75-.51,1.6-.76,2.56-.76s1.78.28,2.37.84c.58.56.87,1.31.87,2.23l-1.56.1c0-.59-.18-1.05-.51-1.38-.33-.33-.78-.5-1.32-.5-.64,0-1.19.2-1.65.6-.47.4-.83,1.01-1.1,1.83-.26.82-.4,1.61-.4,2.36s.17,1.39.52,1.78.78.59,1.29.59,1-.19,1.47-.59c.47-.39.84-.98,1.11-1.78Z"/>
        </g>
        <g class="st0">
          <path class="st1" d="M227.16,66.65l1.54.16c-.22.76-.73,1.49-1.52,2.18s-1.74,1.03-2.84,1.03c-.69,0-1.32-.16-1.89-.48-.57-.32-1.01-.78-1.31-1.38-.3-.61-.45-1.3-.45-2.07,0-1.01.23-2,.7-2.95.47-.95,1.08-1.66,1.82-2.12.75-.46,1.55-.69,2.42-.69,1.11,0,1.99.34,2.65,1.03.66.69.99,1.62.99,2.81,0,.45-.04.92-.12,1.4h-6.83c-.02.18-.03.34-.03.49,0,.87.2,1.53.6,1.99.4.46.89.69,1.46.69.54,0,1.07-.18,1.6-.53s.93-.87,1.22-1.54ZM222.57,64.35h5.21c0-.16,0-.28,0-.35,0-.79-.2-1.4-.59-1.82-.4-.42-.9-.63-1.53-.63-.68,0-1.29.23-1.85.7-.56.47-.97,1.17-1.25,2.11Z"/>
        </g>
        <g class="st0">
          <path class="st1" d="M229.98,66.63l1.58-.1c0,.45.07.84.21,1.16s.4.58.77.79.81.31,1.31.31c.7,0,1.22-.14,1.57-.42s.52-.61.52-.99c0-.27-.1-.53-.31-.78-.21-.24-.74-.55-1.58-.9-.84-.36-1.37-.61-1.6-.76-.39-.24-.68-.52-.88-.84-.2-.32-.3-.69-.3-1.11,0-.73.29-1.36.87-1.89.58-.52,1.4-.79,2.45-.79,1.17,0,2.05.27,2.66.81.61.54.92,1.25.95,2.13l-1.55.1c-.02-.56-.22-1-.59-1.33-.37-.33-.9-.49-1.58-.49-.55,0-.97.12-1.28.38-.3.25-.45.52-.45.81s.13.55.39.77c.17.15.63.38,1.35.7,1.21.52,1.97.94,2.29,1.24.5.48.75,1.07.75,1.76,0,.46-.14.91-.42,1.35-.28.44-.71.8-1.29,1.06-.58.26-1.26.4-2.05.4-1.07,0-1.98-.26-2.73-.79s-1.11-1.39-1.07-2.59Z"/>
        </g>
      </g>
    </g>
  </g>
</svg>